<?xml version="1.0" encoding="UTF-8" standalone="no"?>
<!-- Created with Inkscape (http://www.inkscape.org/) -->

<svg
   xmlns:dc="http://purl.org/dc/elements/1.1/"
   xmlns:cc="http://creativecommons.org/ns#"
   xmlns:rdf="http://www.w3.org/1999/02/22-rdf-syntax-ns#"
   xmlns:svg="http://www.w3.org/2000/svg"
   xmlns="http://www.w3.org/2000/svg"
   xmlns:xlink="http://www.w3.org/1999/xlink"
   xmlns:sodipodi="http://sodipodi.sourceforge.net/DTD/sodipodi-0.dtd"
   xmlns:inkscape="http://www.inkscape.org/namespaces/inkscape"
   width="32"
   height="32"
   id="svg2"
   sodipodi:version="0.32"
   inkscape:version="0.48.3.1 r9886"
   sodipodi:docname="pirate.svg"
   inkscape:output_extension="org.inkscape.output.svg.inkscape"
   inkscape:export-filename="/home/lumpy/javascript/topdown-shooter/pirate.png"
   inkscape:export-xdpi="90"
   inkscape:export-ydpi="90"
   version="1.1">
  <defs
     id="defs4">
    <linearGradient
       id="linearGradient3233">
      <stop
         style="stop-color:#00f2f9;stop-opacity:1;"
         offset="0"
         id="stop3235" />
      <stop
         id="stop3241"
         offset="0.49176046"
         style="stop-color:#00f2f9;stop-opacity:1;" />
      <stop
         style="stop-color:#7af880;stop-opacity:1;"
         offset="0.49176046"
         id="stop3247" />
      <stop
         id="stop3249"
         offset="0.81696427"
         style="stop-color:#7af880;stop-opacity:1;" />
      <stop
         style="stop-color:#f5ff07;stop-opacity:1;"
         offset="0.81696427"
         id="stop3243" />
      <stop
         id="stop3245"
         offset="0.875"
         style="stop-color:#f5ff07;stop-opacity:1;" />
      <stop
         style="stop-color:#f5ff07;stop-opacity:1;"
         offset="1"
         id="stop3237" />
    </linearGradient>
    <linearGradient
       inkscape:collect="always"
       xlink:href="#linearGradient3233"
       id="linearGradient3139"
       gradientUnits="userSpaceOnUse"
       gradientTransform="matrix(0.28405583,0,0,0.28405583,95.748418,597.65456)"
       spreadMethod="repeat"
       x1="345"
       y1="627.36218"
       x2="435"
       y2="487.36218" />
  </defs>
  <sodipodi:namedview
     id="base"
     pagecolor="#ffffff"
     bordercolor="#666666"
     borderopacity="1.0"
     gridtolerance="10000"
     guidetolerance="10"
     objecttolerance="10"
     inkscape:pageopacity="0.0"
     inkscape:pageshadow="2"
     inkscape:zoom="10.375"
     inkscape:cx="22.032431"
     inkscape:cy="19.931252"
     inkscape:document-units="px"
     inkscape:current-layer="g3119"
     inkscape:window-width="1366"
     inkscape:window-height="709"
     inkscape:window-x="0"
     inkscape:window-y="27"
     showgrid="false"
     inkscape:window-maximized="1" />
  <metadata
     id="metadata7">
    <rdf:RDF>
      <cc:Work
         rdf:about="">
        <dc:format>image/svg+xml</dc:format>
        <dc:type
           rdf:resource="http://purl.org/dc/dcmitype/StillImage" />
        <dc:title></dc:title>
      </cc:Work>
    </rdf:RDF>
  </metadata>
  <g
     inkscape:label="Layer 1"
     inkscape:groupmode="layer"
     id="layer1"
     transform="translate(0,-1020.3622)">
    <g
       id="g3119"
       transform="matrix(0.17995917,0,0,0.17995917,-19.872143,903.82929)">
      <rect
         y="721.60101"
         x="164.28351"
         height="70.47934"
         width="73.88179"
         id="rect3178"
         style="color:#000000;fill:url(#linearGradient3139);fill-opacity:1;fill-rule:evenodd;stroke:#000000;stroke-width:5.6820426;stroke-linecap:butt;stroke-linejoin:miter;stroke-miterlimit:4;stroke-opacity:1;stroke-dasharray:none;stroke-dashoffset:0;marker:none;visibility:visible;display:inline;overflow:visible;enable-background:accumulate" />
      <path
         inkscape:connector-curvature="0"
         id="path3217"
         d="m 251.35775,679.79996 c -0.0315,-0.0743 -0.0657,-0.14785 -0.0976,-0.22192 l -0.45271,0.22192 0.55035,0 z"
         style="color:#000000;fill:#f5f2f9;fill-opacity:1;fill-rule:evenodd;stroke:#000000;stroke-width:5.68111658;stroke-linecap:butt;stroke-linejoin:miter;stroke-miterlimit:4;stroke-opacity:1;stroke-dashoffset:0;marker:none;visibility:visible;display:inline;overflow:visible;enable-background:accumulate" />
      <path
         inkscape:connector-curvature="0"
         id="path3215"
         d="m 155.02732,670.14206 c -5.50097,6.70231 -8.72584,14.67919 -8.72584,23.26595 0,23.61106 24.17071,42.77703 53.95285,42.77703 29.78215,0 53.95286,-19.16597 53.95286,-42.77703 0,-4.73308 -1.01197,-9.27113 -2.80505,-13.52816 -0.22234,0.0525 -0.7797,0.19013 -2.21031,0.47934 -1.6718,0.33797 -4.10408,0.78963 -7.14578,1.2605 -1.52085,0.23544 -3.19089,0.47992 -4.99761,0.71014 -1.80672,0.23022 -3.75053,0.44864 -5.80539,0.648 -2.05486,0.19936 -4.22365,0.38085 -6.4889,0.52373 -2.26525,0.14288 -4.62797,0.24993 -7.06589,0.31069 -2.43792,0.0608 -4.95464,0.0736 -7.52748,0.0266 -2.57284,-0.047 -5.20364,-0.15694 -7.87367,-0.33732 -2.67003,-0.18038 -5.37498,-0.43289 -8.10447,-0.77228 -2.72948,-0.33939 -5.47754,-0.76309 -8.22874,-1.28712 -1.3756,-0.26202 -2.75374,-0.54806 -4.12769,-0.86105 -1.37395,-0.31299 -2.74234,-0.65367 -4.10993,-1.02082 -1.36759,-0.36716 -2.73567,-0.76495 -4.09218,-1.18949 -1.35651,-0.42453 -2.70708,-0.87302 -4.0478,-1.35814 -1.34071,-0.48512 -2.67433,-1.00453 -3.99453,-1.55343 -1.3202,-0.5489 -2.62856,-1.13283 -3.92352,-1.74872 -1.29497,-0.61589 -2.56974,-1.2668 -3.83476,-1.95288 -0.94409,-0.51203 -1.87105,-1.06289 -2.79617,-1.61557 z"
         style="color:#000000;fill:#f5d7ad;fill-opacity:1;fill-rule:evenodd;stroke:#000000;stroke-width:5.68111658;stroke-linecap:butt;stroke-linejoin:miter;stroke-miterlimit:4;stroke-opacity:1;stroke-dashoffset:0;marker:none;visibility:visible;display:inline;overflow:visible;enable-background:accumulate" />
      <path
         inkscape:connector-curvature="0"
         id="path3174"
         d="m 155.02732,670.14206 c 0.92512,0.55268 1.85208,1.10354 2.79617,1.61557 1.26502,0.68608 2.53979,1.33699 3.83476,1.95288 1.29496,0.61589 2.60332,1.19982 3.92352,1.74872 1.3202,0.5489 2.65382,1.06831 3.99453,1.55343 1.34072,0.48512 2.69129,0.93361 4.0478,1.35814 1.35651,0.42454 2.72459,0.82233 4.09218,1.18949 1.36759,0.36715 2.73598,0.70783 4.10993,1.02082 1.37395,0.31299 2.75209,0.59903 4.12769,0.86105 2.7512,0.52403 5.49926,0.94773 8.22874,1.28712 2.72949,0.33939 5.43444,0.5919 8.10447,0.77228 2.67003,0.18038 5.30083,0.29033 7.87367,0.33732 2.57284,0.047 5.08956,0.0341 7.52748,-0.0266 2.43792,-0.0608 4.80064,-0.16781 7.06589,-0.31069 2.26525,-0.14288 4.43404,-0.32437 6.4889,-0.52373 2.05486,-0.19936 3.99867,-0.41778 5.80539,-0.648 1.80672,-0.23022 3.47676,-0.4747 4.99761,-0.71014 3.0417,-0.47087 5.47398,-0.92253 7.14578,-1.2605 1.43061,-0.28921 1.98797,-0.42679 2.21031,-0.47934 -0.0118,-0.0279 -0.0326,-0.052 -0.0444,-0.0799 l -0.55035,0 0.45271,-0.22192 c -7.26486,-16.82013 -27.33717,-28.93819 -51.00578,-28.93819 -18.95111,0 -35.60192,7.77513 -45.22701,19.50221 z"
         style="color:#000000;fill:#f0211e;fill-opacity:1;fill-rule:evenodd;stroke:#000000;stroke-width:5.68111658;stroke-linecap:butt;stroke-linejoin:miter;stroke-miterlimit:4;stroke-opacity:1;stroke-dashoffset:0;marker:none;visibility:visible;display:inline;overflow:visible;enable-background:accumulate" />
      <path
         inkscape:connector-curvature="0"
         id="path3180"
         d="m 182.26789,788.67788 -4.37458,42.77367"
         style="fill:#f5f2f9;fill-opacity:1;fill-rule:evenodd;stroke:#000000;stroke-width:5.68111658;stroke-linecap:butt;stroke-linejoin:miter;stroke-miterlimit:4;stroke-opacity:1;stroke-dasharray:none" />
      <path
         inkscape:connector-curvature="0"
         id="path3182"
         d="m 215.32026,789.16394 c 0.48607,2.91639 4.86065,42.77367 4.86065,42.77367"
         style="fill:#f5f2f9;fill-opacity:1;fill-rule:evenodd;stroke:#000000;stroke-width:5.68111658;stroke-linecap:butt;stroke-linejoin:miter;stroke-miterlimit:4;stroke-opacity:1;stroke-dasharray:none" />
      <path
         inkscape:connector-curvature="0"
         id="path3184"
         d="m 235.24891,754.65337 27.2196,-14.09587"
         style="fill:#f5f2f9;fill-opacity:1;fill-rule:evenodd;stroke:#000000;stroke-width:5.68111658;stroke-linecap:butt;stroke-linejoin:miter;stroke-miterlimit:4;stroke-opacity:1;stroke-dasharray:none" />
      <path
         inkscape:connector-curvature="0"
         id="path3186"
         d="M 165.74169,752.70911 136.57783,739.58537"
         style="fill:#f5f2f9;fill-opacity:1;fill-rule:evenodd;stroke:#000000;stroke-width:5.68111658;stroke-linecap:butt;stroke-linejoin:miter;stroke-miterlimit:4;stroke-opacity:1;stroke-dasharray:none" />
      <path
         transform="matrix(0.29200576,0,0,0.28119075,90.682664,620.23231)"
         d="m 292.60803,284.90781 c 0,12.75812 -9.95945,23.10063 -22.24505,23.10063 -12.28561,0 -22.24506,-10.34251 -22.24506,-23.10063 0,-12.75813 9.95945,-23.10064 22.24506,-23.10064 12.2856,0 22.24505,10.34251 22.24505,23.10064 z"
         sodipodi:ry="23.100634"
         sodipodi:rx="22.245054"
         sodipodi:cy="284.90781"
         sodipodi:cx="270.36298"
         id="path3196"
         style="color:#000000;fill:#f5f2f9;fill-opacity:1;fill-rule:evenodd;stroke:#000000;stroke-width:18.0649662;stroke-linecap:butt;stroke-linejoin:miter;stroke-miterlimit:4;stroke-opacity:1;stroke-dasharray:none;stroke-dashoffset:0;marker:none;visibility:visible;display:inline;overflow:visible;enable-background:accumulate"
         sodipodi:type="arc" />
      <path
         transform="matrix(0.41255729,0,0,0.24854885,17.650145,623.95273)"
         d="m 497.94698,319.98654 c 0,22.68112 -16.08834,41.06779 -35.93432,41.06779 -19.84597,0 -35.93431,-18.38667 -35.93431,-41.06779 0,-22.68111 16.08834,-41.06779 35.93431,-41.06779 19.84598,0 35.93432,18.38668 35.93432,41.06779 z"
         sodipodi:ry="41.067791"
         sodipodi:rx="35.934319"
         sodipodi:cy="319.98654"
         sodipodi:cx="462.01266"
         id="path3198"
         style="color:#000000;fill:#f5f2f9;fill-opacity:1;fill-rule:evenodd;stroke:#000000;stroke-width:17.74131012;stroke-linecap:butt;stroke-linejoin:miter;stroke-miterlimit:4;stroke-opacity:1;stroke-dasharray:none;stroke-dashoffset:0;marker:none;visibility:visible;display:inline;overflow:visible;enable-background:accumulate"
         sodipodi:type="arc" />
      <path
         transform="matrix(0.28405583,0,0,0.28405583,162.33924,628.27662)"
         d="m 51.334741,137.74821 c 0,3.30767 -2.68139,5.98906 -5.989053,5.98906 -3.307663,0 -5.989053,-2.68139 -5.989053,-5.98906 0,-3.30766 2.68139,-5.98905 5.989053,-5.98905 3.307663,0 5.989053,2.68139 5.989053,5.98905 z"
         sodipodi:ry="5.9890532"
         sodipodi:rx="5.9890532"
         sodipodi:cy="137.74821"
         sodipodi:cx="45.345688"
         id="path3219"
         style="color:#000000;fill:#f0211e;fill-opacity:1;fill-rule:evenodd;stroke:#ffffff;stroke-width:20;stroke-linecap:butt;stroke-linejoin:miter;stroke-miterlimit:4;stroke-opacity:1;stroke-dasharray:none;stroke-dashoffset:0;marker:none;visibility:visible;display:inline;overflow:visible;enable-background:accumulate"
         sodipodi:type="arc" />
      <path
         transform="matrix(0.08115881,0,0,0.20289702,184.17742,633.78431)"
         d="m 51.334741,137.74821 c 0,3.30767 -2.68139,5.98906 -5.989053,5.98906 -3.307663,0 -5.989053,-2.68139 -5.989053,-5.98906 0,-3.30766 2.68139,-5.98905 5.989053,-5.98905 3.307663,0 5.989053,2.68139 5.989053,5.98905 z"
         sodipodi:ry="5.9890532"
         sodipodi:rx="5.9890532"
         sodipodi:cy="137.74821"
         sodipodi:cx="45.345688"
         id="path3221"
         style="color:#000000;fill:#f0211e;fill-opacity:1;fill-rule:evenodd;stroke:#ffffff;stroke-width:44.27188492;stroke-linecap:butt;stroke-linejoin:miter;stroke-miterlimit:4;stroke-opacity:1;stroke-dasharray:none;stroke-dashoffset:0;marker:none;visibility:visible;display:inline;overflow:visible;enable-background:accumulate"
         sodipodi:type="arc" />
      <path
         transform="matrix(0.60869106,0,0,0.20289702,175.08108,635.56448)"
         d="m 51.334741,137.74821 c 0,3.30767 -2.68139,5.98906 -5.989053,5.98906 -3.307663,0 -5.989053,-2.68139 -5.989053,-5.98906 0,-3.30766 2.68139,-5.98905 5.989053,-5.98905 3.307663,0 5.989053,2.68139 5.989053,5.98905 z"
         sodipodi:ry="5.9890532"
         sodipodi:rx="5.9890532"
         sodipodi:cy="137.74821"
         sodipodi:cx="45.345688"
         id="path3223"
         style="color:#000000;fill:#f0211e;fill-opacity:1;fill-rule:evenodd;stroke:#ffffff;stroke-width:16.16580772;stroke-linecap:butt;stroke-linejoin:miter;stroke-miterlimit:4;stroke-opacity:1;stroke-dasharray:none;stroke-dashoffset:0;marker:none;visibility:visible;display:inline;overflow:visible;enable-background:accumulate"
         sodipodi:type="arc" />
      <path
         transform="matrix(0.20289702,0,0,0.12173821,226.79305,657.68352)"
         d="m 51.334741,137.74821 c 0,3.30767 -2.68139,5.98906 -5.989053,5.98906 -3.307663,0 -5.989053,-2.68139 -5.989053,-5.98906 0,-3.30766 2.68139,-5.98905 5.989053,-5.98905 3.307663,0 5.989053,2.68139 5.989053,5.98905 z"
         sodipodi:ry="5.9890532"
         sodipodi:rx="5.9890532"
         sodipodi:cy="137.74821"
         sodipodi:cx="45.345688"
         id="path3225"
         style="color:#000000;fill:#f0211e;fill-opacity:1;fill-rule:evenodd;stroke:#ffffff;stroke-width:36.14784622;stroke-linecap:butt;stroke-linejoin:miter;stroke-miterlimit:4;stroke-opacity:1;stroke-dasharray:none;stroke-dashoffset:0;marker:none;visibility:visible;display:inline;overflow:visible;enable-background:accumulate"
         sodipodi:type="arc" />
      <path
         transform="matrix(0.40579404,0,0,0.20289702,196.19016,646.50404)"
         d="m 51.334741,137.74821 c 0,3.30767 -2.68139,5.98906 -5.989053,5.98906 -3.307663,0 -5.989053,-2.68139 -5.989053,-5.98906 0,-3.30766 2.68139,-5.98905 5.989053,-5.98905 3.307663,0 5.989053,2.68139 5.989053,5.98905 z"
         sodipodi:ry="5.9890532"
         sodipodi:rx="5.9890532"
         sodipodi:cy="137.74821"
         sodipodi:cx="45.345688"
         id="path3227"
         style="color:#000000;fill:#f0211e;fill-opacity:1;fill-rule:evenodd;stroke:#ffffff;stroke-width:19.79899025;stroke-linecap:butt;stroke-linejoin:miter;stroke-miterlimit:4;stroke-opacity:1;stroke-dasharray:none;stroke-dashoffset:0;marker:none;visibility:visible;display:inline;overflow:visible;enable-background:accumulate"
         sodipodi:type="arc" />
      <path
         transform="matrix(0.28405583,0,0,0.28405583,181.94281,634.75644)"
         d="m 51.334741,137.74821 c 0,3.30767 -2.68139,5.98906 -5.989053,5.98906 -3.307663,0 -5.989053,-2.68139 -5.989053,-5.98906 0,-3.30766 2.68139,-5.98905 5.989053,-5.98905 3.307663,0 5.989053,2.68139 5.989053,5.98905 z"
         sodipodi:ry="5.9890532"
         sodipodi:rx="5.9890532"
         sodipodi:cy="137.74821"
         sodipodi:cx="45.345688"
         id="path3229"
         style="color:#000000;fill:#f0211e;fill-opacity:1;fill-rule:evenodd;stroke:#ffffff;stroke-width:20;stroke-linecap:butt;stroke-linejoin:miter;stroke-miterlimit:4;stroke-opacity:1;stroke-dasharray:none;stroke-dashoffset:0;marker:none;visibility:visible;display:inline;overflow:visible;enable-background:accumulate"
         sodipodi:type="arc" />
      <path
         transform="matrix(0.28405583,0,0,0.28405583,205.84201,622.36491)"
         d="m 51.334741,137.74821 c 0,3.30767 -2.68139,5.98906 -5.989053,5.98906 -3.307663,0 -5.989053,-2.68139 -5.989053,-5.98906 0,-3.30766 2.68139,-5.98905 5.989053,-5.98905 3.307663,0 5.989053,2.68139 5.989053,5.98905 z"
         sodipodi:ry="5.9890532"
         sodipodi:rx="5.9890532"
         sodipodi:cy="137.74821"
         sodipodi:cx="45.345688"
         id="path3231"
         style="color:#000000;fill:#f0211e;fill-opacity:1;fill-rule:evenodd;stroke:#ffffff;stroke-width:20;stroke-linecap:butt;stroke-linejoin:miter;stroke-miterlimit:4;stroke-opacity:1;stroke-dasharray:none;stroke-dashoffset:0;marker:none;visibility:visible;display:inline;overflow:visible;enable-background:accumulate"
         sodipodi:type="arc" />
      <path
         inkscape:transform-center-y="-0.71090656"
         inkscape:transform-center-x="-15.461901"
         transform="matrix(0.28375607,-0.01304638,0.01304638,0.28375607,92.093889,603.30865)"
         d="m 631.41729,279.77432 c 0,12.75813 -19.9189,23.10064 -44.4901,23.10064 -24.57121,0 -44.49011,-10.34251 -44.49011,-23.10064 0,-12.75813 19.9189,-23.10063 44.49011,-23.10063 24.5712,0 44.4901,10.3425 44.4901,23.10063 z"
         sodipodi:ry="23.100634"
         sodipodi:rx="44.490108"
         sodipodi:cy="279.77432"
         sodipodi:cx="586.92719"
         id="path2193"
         style="color:#000000;fill:#f0211e;fill-opacity:1;fill-rule:evenodd;stroke:#000000;stroke-width:20;stroke-linecap:butt;stroke-linejoin:miter;stroke-miterlimit:4;stroke-opacity:1;stroke-dasharray:none;stroke-dashoffset:0;marker:none;visibility:visible;display:inline;overflow:visible;enable-background:accumulate"
         sodipodi:type="arc" />
    </g>
  </g>
</svg>
